<svg xmlns="http://www.w3.org/2000/svg" viewBox="0 0 320 140" role="img" aria-label="Astralis Nova starship">
  <defs>
    <linearGradient id="hull" x1="0" x2="1">
      <stop offset="0" stop-color="#6f7f99"/>
      <stop offset=".45" stop-color="#e9f0ff"/>
      <stop offset="1" stop-color="#65718a"/>
    </linearGradient>
    <linearGradient id="glass" x1="0" x2="1">
      <stop offset="0" stop-color="#16233c"/>
      <stop offset=".55" stop-color="#315a93"/>
      <stop offset="1" stop-color="#0e1425"/>
    </linearGradient>
    <linearGradient id="engine" x1="0" x2="1">
      <stop offset="0" stop-color="#8d4cff" stop-opacity="0"/>
      <stop offset=".5" stop-color="#7e6cff" stop-opacity=".8"/>
      <stop offset="1" stop-color="#66ddff"/>
    </linearGradient>
    <filter id="glow" x="-60%" y="-60%" width="220%" height="220%">
      <feGaussianBlur stdDeviation="5" result="b"/>
      <feMerge><feMergeNode in="b"/><feMergeNode in="SourceGraphic"/></feMerge>
    </filter>
  </defs>
  <path d="M18 72 C55 57 79 50 112 46 L180 26 C219 15 257 22 298 54 L312 66 C279 72 245 79 207 84 L135 105 C95 116 57 107 18 72Z"
        fill="url(#hull)" stroke="#d9e6ff" stroke-width="2"/>
  <path d="M76 68 C111 54 151 45 198 40 C235 36 263 43 286 58 C250 60 212 65 177 72 C136 80 103 81 76 68Z"
        fill="url(#glass)" stroke="#8ebcff" stroke-width="1.5"/>
  <path d="M104 93 L47 122 L129 103 L181 83 Z" fill="#75839c" stroke="#c4d4ef" stroke-width="1.5"/>
  <path d="M144 45 L114 10 L188 31 L211 43 Z" fill="#7b89a3" stroke="#c4d4ef" stroke-width="1.5"/>
  <path d="M37 61 L6 47 L24 67 L7 86 L40 76 Z" fill="#59667e"/>
  <ellipse cx="52" cy="69" rx="18" ry="8" fill="#69d9ff" filter="url(#glow)"/>
  <path d="M48 69 H-42" stroke="url(#engine)" stroke-width="13" stroke-linecap="round" filter="url(#glow)"/>
  <circle cx="205" cy="58" r="4" fill="#9c7bff" filter="url(#glow)"/>
  <path d="M116 85 C160 77 205 69 252 63" fill="none" stroke="#8f6cff" stroke-width="3" opacity=".85" filter="url(#glow)"/>
</svg>