<svg xmlns="http://www.w3.org/2000/svg" viewBox="0 0 1600 760" role="img" aria-labelledby="title desc"><title id="title">NXS Astralis Explorer Class</title><desc id="desc">A detailed classic explorer starship with twin nacelles and glowing blue warp engines.</desc><defs><linearGradient id="hullLight" x1="0" y1="0" x2="1" y2="1"><stop offset="0%" stop-color="#f6fbff"/><stop offset="38%" stop-color="#d6e0ea"/><stop offset="70%" stop-color="#9eafbe"/><stop offset="100%" stop-color="#788a98"/></linearGradient><linearGradient id="hullDark" x1="0" y1="0" x2="1" y2="1"><stop offset="0%" stop-color="#9eacb9"/><stop offset="45%" stop-color="#748595"/><stop offset="100%" stop-color="#465768"/></linearGradient><linearGradient id="rimShadow" x1="0" y1="0" x2="0" y2="1"><stop offset="0%" stop-color="#f0f6fb"/><stop offset="48%" stop-color="#a3b2be"/><stop offset="100%" stop-color="#5f7181"/></linearGradient><linearGradient id="glowBlue" x1="0" y1="0" x2="1" y2="0"><stop offset="0%" stop-color="#84efff"/><stop offset="45%" stop-color="#4ac7ff"/><stop offset="100%" stop-color="#0d6dff"/></linearGradient><linearGradient id="nacelleBody" x1="0" y1="0" x2="1" y2="1"><stop offset="0%" stop-color="#f5fbff"/><stop offset="45%" stop-color="#b8c6d2"/><stop offset="100%" stop-color="#748695"/></linearGradient><radialGradient id="engineCore" cx="50%" cy="50%" r="60%"><stop offset="0%" stop-color="#effdff"/><stop offset="28%" stop-color="#9aeeff"/><stop offset="52%" stop-color="#58c7ff"/><stop offset="78%" stop-color="#0d8cff"/><stop offset="100%" stop-color="#0050cc"/></radialGradient><radialGradient id="deflector" cx="50%" cy="50%" r="50%"><stop offset="0%" stop-color="#a7fdff"/><stop offset="45%" stop-color="#1bd3ff"/><stop offset="100%" stop-color="#0077ff"/></radialGradient><filter id="softGlow" x="-40%" y="-40%" width="180%" height="180%"><feGaussianBlur stdDeviation="10" result="blur"/><feColorMatrix in="blur" type="matrix" values="1 0 0 0 0  0 1 0 0 0.2  0 0 1 0 0.8  0 0 0 1 0"/></filter><filter id="shadow" x="-30%" y="-30%" width="160%" height="160%"><feDropShadow dx="0" dy="18" stdDeviation="15" flood-color="#081a36" flood-opacity="0.35"/></filter><pattern id="windows" width="28" height="8" patternUnits="userSpaceOnUse"><rect width="18" height="3" x="0" y="2" rx="1.5" fill="#77dcff" opacity="0.95"/></pattern><pattern id="microPanels" width="46" height="22" patternUnits="userSpaceOnUse"><path d="M1 1h20M24 1h18M6 10h12M26 10h14M12 18h22" stroke="#6b7f8e" stroke-opacity="0.24" stroke-width="1.4" fill="none" stroke-linecap="round"/></pattern></defs><g filter="url(#shadow)" transform="translate(40 15)"><ellipse cx="784" cy="390" rx="510" ry="44" fill="#0b2c62" opacity="0.12"/><g transform="translate(150 166)"><path d="M0 80C8 28 70 6 146 0h324c46 5 76 36 80 74v16c-2 51-44 88-95 90H100C43 178 5 142 0 95Z" fill="url(#nacelleBody)" stroke="#526474" stroke-width="4"/><path d="M32 93h330c58-2 105-34 137-74-14-9-31-15-49-19H146C67 7 11 34 0 80c9 10 20 13 32 13Z" fill="#ffffff" opacity="0.34"/><rect x="28" y="67" width="360" height="34" rx="17" fill="#173b7f" opacity="0.32"/><rect x="42" y="74" width="338" height="20" rx="10" fill="url(#glowBlue)"/><ellipse cx="468" cy="90" rx="52" ry="52" fill="url(#engineCore)"/><ellipse cx="468" cy="90" rx="64" ry="64" fill="url(#engineCore)" opacity="0.25" filter="url(#softGlow)"/><circle cx="468" cy="90" r="38" fill="none" stroke="#d8fcff" stroke-opacity="0.9" stroke-width="3"/><circle cx="468" cy="90" r="26" fill="none" stroke="#d8fcff" stroke-opacity="0.65" stroke-width="2"/><path d="M116 20h242" stroke="#eff8ff" stroke-opacity="0.7" stroke-width="5" stroke-linecap="round"/><path d="M78 131h262" stroke="#4d5f6f" stroke-opacity="0.32" stroke-width="4" stroke-linecap="round"/><rect x="94" y="12" width="320" height="150" rx="68" fill="url(#microPanels)" opacity="0.7"/></g><g transform="translate(165 476) scale(0.94)"><path d="M0 80C8 28 70 6 146 0h324c46 5 76 36 80 74v16c-2 51-44 88-95 90H100C43 178 5 142 0 95Z" fill="url(#nacelleBody)" stroke="#526474" stroke-width="4"/><path d="M32 93h330c58-2 105-34 137-74-14-9-31-15-49-19H146C67 7 11 34 0 80c9 10 20 13 32 13Z" fill="#ffffff" opacity="0.30"/><rect x="28" y="67" width="360" height="34" rx="17" fill="#173b7f" opacity="0.32"/><rect x="42" y="74" width="338" height="20" rx="10" fill="url(#glowBlue)"/><ellipse cx="468" cy="90" rx="52" ry="52" fill="url(#engineCore)"/><ellipse cx="468" cy="90" rx="64" ry="64" fill="url(#engineCore)" opacity="0.25" filter="url(#softGlow)"/><circle cx="468" cy="90" r="38" fill="none" stroke="#d8fcff" stroke-opacity="0.9" stroke-width="3"/><circle cx="468" cy="90" r="26" fill="none" stroke="#d8fcff" stroke-opacity="0.65" stroke-width="2"/><rect x="94" y="12" width="320" height="150" rx="68" fill="url(#microPanels)" opacity="0.7"/></g><g><path d="M518 285 820 370c14 4 18 22 8 32l-20 19c-8 7-19 10-29 7L474 344c-16-5-22-25-12-37l18-19c9-10 24-13 38-9Z" fill="url(#hullDark)" stroke="#495a69" stroke-width="4"/><path d="M472 348 778 434c13 4 17 20 7 29l-18 16c-8 7-18 10-28 7L433 401c-16-5-22-25-11-37l16-17c9-10 22-13 34-10Z" fill="url(#hullDark)" stroke="#495a69" stroke-width="4"/><path d="M522 297 804 375" stroke="#f1f8ff" stroke-opacity="0.45" stroke-width="7" stroke-linecap="round"/><path d="M474 359 754 438" stroke="#f1f8ff" stroke-opacity="0.30" stroke-width="6" stroke-linecap="round"/></g><g><path d="M690 320c96 6 184 24 252 49 40 14 70 33 88 56 17 22 24 46 18 72-9 39-50 71-117 95-77 27-185 44-308 42-121-1-233-20-311-52-73-30-116-71-118-114-1-31 19-61 58-85 53-33 132-56 226-63Z" fill="url(#hullLight)" stroke="#566979" stroke-width="4"/><path d="M476 450c69-18 181-32 308-30 122 1 232 16 304 39-8 22-31 44-66 63-77 42-201 68-347 67-140-1-259-28-335-72-26-16-46-33-58-51 42-6 111-9 194-16Z" fill="url(#hullDark)" opacity="0.68"/><ellipse cx="760" cy="502" rx="256" ry="32" fill="#1b2a3b" opacity="0.35"/><path d="M730 346h130" stroke="#eaf6ff" stroke-opacity="0.58" stroke-width="4" stroke-linecap="round"/><path d="M615 390c98-10 302-9 412 7" stroke="#d6e4ef" stroke-opacity="0.48" stroke-width="4" stroke-linecap="round"/><path d="M564 436c100 10 291 16 442 7" stroke="#546676" stroke-opacity="0.44" stroke-width="3" stroke-linecap="round"/><path d="M534 512c91 28 279 44 410 34" stroke="#d5e2ec" stroke-opacity="0.25" stroke-width="3" stroke-linecap="round"/><path d="M540 352h440v206H540z" fill="url(#microPanels)" opacity="0.65"/><ellipse cx="888" cy="533" rx="48" ry="44" fill="url(#engineCore)"/><ellipse cx="888" cy="533" rx="68" ry="64" fill="url(#engineCore)" opacity="0.22" filter="url(#softGlow)"/></g><g><path d="M850 255c34-14 76-23 120-26 45-2 87 4 116 18 18 9 28 22 28 36 0 25-30 47-79 58-54 12-127 12-182-1-49-10-80-30-83-54-1-12 6-23 20-31 15-9 36-16 60-22Z" fill="url(#hullLight)" stroke="#566979" stroke-width="4"/><ellipse cx="994" cy="246" rx="102" ry="28" fill="#f8fcff" opacity="0.55"/><path d="M909 258c50 18 144 18 190 3" stroke="#5c6f7e" stroke-opacity="0.45" stroke-width="3" stroke-linecap="round"/></g><g><path d="M745 161c147-22 361-23 521 5 106 18 182 47 220 82 28 26 35 55 19 82-22 36-86 64-179 84-120 27-292 42-478 40-197-2-377-23-495-58-90-27-140-63-141-100-1-37 45-70 130-97 94-30 236-52 403-65Z" fill="url(#hullLight)" stroke="#556879" stroke-width="5"/><path d="M689 299c120 29 310 48 523 50 185 2 356-10 478-32-25 20-67 38-126 54-120 33-305 54-507 52-199-2-381-26-500-66-61-20-102-42-122-64 74 2 160 6 254 6Z" fill="url(#rimShadow)" opacity="0.92"/><path d="M732 196c164-26 406-25 586 2 111 16 187 41 225 72-62-13-162-22-286-27-183-7-398 0-558 21-89 12-159 26-210 41 26-42 105-79 243-109Z" fill="#ffffff" opacity="0.48"/><ellipse cx="1138" cy="228" rx="126" ry="55" fill="url(#hullLight)" stroke="#566979" stroke-width="4"/><ellipse cx="1138" cy="210" rx="84" ry="26" fill="#0f1f2f" opacity="0.92"/><rect x="1038" y="233" width="198" height="12" rx="6" fill="#71daff" opacity="0.8"/><path d="M870 285c197-12 463-4 648 16" stroke="#394c5d" stroke-opacity="0.55" stroke-width="4" stroke-linecap="round"/><path d="M796 251c181-18 461-18 667 7" stroke="#f4f9fd" stroke-opacity="0.58" stroke-width="4" stroke-linecap="round"/><path d="M824 340c196 17 458 17 642 0" stroke="#4a5d6e" stroke-opacity="0.55" stroke-width="4" stroke-linecap="round"/><path d="M812 200h640v170H812z" fill="url(#microPanels)" opacity="0.48"/><path d="M862 307c160 10 425 13 587 2" stroke="url(#windows)" stroke-width="10" stroke-linecap="round"/><text x="1104" y="309" font-family="Arial, Helvetica, sans-serif" font-size="26" fill="#243342" opacity="0.78" letter-spacing="2">NXS ASTRALIS</text><ellipse cx="1228" cy="420" rx="74" ry="20" fill="#204e95" opacity="0.3"/><ellipse cx="1228" cy="422" rx="42" ry="14" fill="url(#deflector)"/><ellipse cx="1228" cy="422" rx="58" ry="18" fill="url(#deflector)" opacity="0.15" filter="url(#softGlow)"/></g></g></svg>