<svg xmlns="http://www.w3.org/2000/svg" viewBox="0 0 420 180" role="img" aria-labelledby="title desc"><title id="title">Astralis Nova Explorer starship</title><desc id="desc">An original sleek deep-space explorer with a luminous saucer, twin engine nacelles, and blue warp glow.</desc><defs><linearGradient id="hull" x1="0" y1="0" x2="1" y2="1"><stop stop-color="#f7fbff"/><stop offset=".42" stop-color="#a8c7dc"/><stop offset=".72" stop-color="#4e6f88"/><stop offset="1" stop-color="#172738"/></linearGradient><linearGradient id="dark" x1="0" x2="1"><stop stop-color="#28475f"/><stop offset="1" stop-color="#08131f"/></linearGradient><linearGradient id="engine" x1="0" x2="1"><stop stop-color="#dfffff"/><stop offset=".34" stop-color="#75e9ff"/><stop offset=".72" stop-color="#3d78ff"/><stop offset="1" stop-color="#9e47ff"/></linearGradient><linearGradient id="trail" x1="1" x2="0"><stop stop-color="#c8fbff" stop-opacity=".92"/><stop offset=".25" stop-color="#6bdcff" stop-opacity=".65"/><stop offset="1" stop-color="#5984ff" stop-opacity="0"/></linearGradient><radialGradient id="dish"><stop stop-color="#ffffff"/><stop offset=".28" stop-color="#caefff"/><stop offset=".62" stop-color="#6ca6cf"/><stop offset="1" stop-color="#183448"/></radialGradient><filter id="glow"><feGaussianBlur stdDeviation="4" result="b"/><feMerge><feMergeNode in="b"/><feMergeNode in="SourceGraphic"/></feMerge></filter><filter id="soft"><feGaussianBlur stdDeviation="7"/></filter></defs><g opacity=".6" filter="url(#soft)"><path d="M12 116C80 93 145 88 206 101C139 103 77 116 12 126Z" fill="url(#trail)"/><path d="M26 53C84 66 140 69 205 63C143 57 84 51 26 43Z" fill="url(#trail)"/></g><g transform="translate(48 20)"><path d="M86 78L164 57L264 63L318 81L264 99L164 105Z" fill="url(#dark)" stroke="#7ea5bb" stroke-width="3"/><path d="M177 72L236 50L279 59L245 77Z" fill="url(#hull)" stroke="#9cc3d8" stroke-width="2"/><path d="M177 92L236 114L279 105L245 87Z" fill="url(#hull)" stroke="#799bb0" stroke-width="2"/><ellipse cx="168" cy="81" rx="101" ry="45" fill="url(#hull)" stroke="#d8edf7" stroke-width="4"/><ellipse cx="164" cy="76" rx="67" ry="22" fill="url(#dish)" opacity=".93"/><ellipse cx="155" cy="71" rx="22" ry="8" fill="#ffffff" opacity=".36"/><path d="M218 76L301 54L332 60L248 83Z" fill="url(#dark)" stroke="#7595aa" stroke-width="3"/><path d="M218 87L301 109L332 103L248 80Z" fill="url(#dark)" stroke="#7595aa" stroke-width="3"/><g filter="url(#glow)"><rect x="280" y="39" width="79" height="22" rx="11" fill="url(#engine)"/><rect x="280" y="101" width="79" height="22" rx="11" fill="url(#engine)"/><ellipse cx="349" cy="50" rx="12" ry="9" fill="#e9ffff"/><ellipse cx="349" cy="112" rx="12" ry="9" fill="#e9ffff"/></g><path d="M298 39L273 47L276 61L303 61Z" fill="url(#hull)" stroke="#92b5c7" stroke-width="2"/><path d="M298 123L273 115L276 101L303 101Z" fill="url(#hull)" stroke="#92b5c7" stroke-width="2"/><path d="M180 58L199 33L222 41L210 63Z" fill="url(#hull)" stroke="#9dc2d3" stroke-width="2"/><path d="M142 80L168 61L194 79L170 100Z" fill="#152b3c" opacity=".78"/><circle cx="170" cy="80" r="7" fill="#73f6ff" filter="url(#glow)"/><path d="M135 96C157 101 180 101 202 95" fill="none" stroke="#ff73cc" stroke-width="3" opacity=".72"/><circle cx="110" cy="66" r="3" fill="#8fefff"/><circle cx="124" cy="61" r="2.5" fill="#8fefff"/><circle cx="109" cy="96" r="2.5" fill="#ffb45e"/><circle cx="130" cy="102" r="2" fill="#ffb45e"/></g></svg>