<svg xmlns="http://www.w3.org/2000/svg" viewBox="0 0 720 320" fill="none">
  <defs>
    <linearGradient id="nacelle" x1="0" x2="1">
      <stop offset="0" stop-color="#5dd9ff"/>
      <stop offset="0.45" stop-color="#cfefff"/>
      <stop offset="1" stop-color="#7c8bff"/>
    </linearGradient>
    <linearGradient id="hull" x1="0" x2="1">
      <stop offset="0" stop-color="#eef4ff"/>
      <stop offset="0.52" stop-color="#bccae3"/>
      <stop offset="1" stop-color="#7f93b7"/>
    </linearGradient>
    <linearGradient id="shadow" x1="0" x2="1">
      <stop offset="0" stop-color="#2a395d"/>
      <stop offset="1" stop-color="#13233f"/>
    </linearGradient>
    <radialGradient id="deflector" cx="50%" cy="50%" r="60%">
      <stop offset="0" stop-color="#fff5c9"/>
      <stop offset="0.5" stop-color="#ffd777"/>
      <stop offset="1" stop-color="#ff8d49"/>
    </radialGradient>
    <filter id="glow" x="-30%" y="-30%" width="160%" height="160%">
      <feGaussianBlur stdDeviation="5" result="b"/>
      <feMerge><feMergeNode in="b"/><feMergeNode in="SourceGraphic"/></feMerge>
    </filter>
  </defs>
  <g opacity="0.35" filter="url(#glow)">
    <ellipse cx="185" cy="160" rx="46" ry="6" fill="#8de8ff"/>
    <ellipse cx="185" cy="160" rx="88" ry="9" fill="#8de8ff" opacity="0.35"/>
  </g>
  <g>
    <path d="M70 160c28-34 92-63 171-79 67-14 141-15 206-3 21 4 34 8 50 14-22 16-50 26-86 34 20 7 38 16 54 29-20 9-47 17-76 21-76 12-176 7-255-12-26-6-47-14-64-24Z" fill="url(#hull)" stroke="#d8e7ff" stroke-width="4"/>
    <path d="M92 160c27-28 92-53 163-66 61-12 127-12 184-2-34 10-67 17-106 22 26 7 48 16 67 30-69 9-156 5-233-13-29-7-55-15-75-25Z" fill="url(#shadow)" opacity="0.23"/>
    <ellipse cx="194" cy="160" rx="118" ry="50" fill="url(#hull)" stroke="#eff7ff" stroke-width="5"/>
    <ellipse cx="194" cy="160" rx="98" ry="39" fill="#7e93b7" opacity="0.23"/>
    <ellipse cx="194" cy="160" rx="55" ry="24" fill="#0f2345" opacity="0.78"/>
    <ellipse cx="194" cy="160" rx="48" ry="18" fill="#16386c" opacity="0.85"/>
    <path d="M192 115 203 77c3-10 14-17 27-17h34c13 0 24 7 27 17l12 38" fill="url(#hull)" stroke="#eff7ff" stroke-width="4"/>
    <path d="M198 119h92" stroke="#8aa4d6" stroke-width="4" stroke-linecap="round"/>
    <path d="M285 140h118c22 0 38 11 44 27l16 46h-60l-12-32H285z" fill="url(#hull)" stroke="#e7f1ff" stroke-width="4"/>
    <path d="M452 180h110c22 0 38 7 54 19-18 8-37 14-64 17l-98 12z" fill="url(#hull)" stroke="#e7f1ff" stroke-width="4"/>
    <circle cx="542" cy="199" r="22" fill="url(#deflector)" filter="url(#glow)"/>
    <path d="M299 138 346 86h72l-15 54" fill="url(#hull)" stroke="#eff7ff" stroke-width="4"/>
    <path d="M330 128h46" stroke="#81c9ff" stroke-width="5" stroke-linecap="round"/>
    <g>
      <rect x="299" y="79" width="174" height="29" rx="14.5" fill="#21385c"/>
      <rect x="299" y="79" width="174" height="29" rx="14.5" fill="url(#nacelle)" opacity="0.85"/>
      <rect x="301" y="88" width="170" height="11" rx="5.5" fill="#e9fbff" opacity="0.55"/>
      <rect x="299" y="212" width="174" height="29" rx="14.5" fill="#21385c"/>
      <rect x="299" y="212" width="174" height="29" rx="14.5" fill="url(#nacelle)" opacity="0.85"/>
      <rect x="301" y="221" width="170" height="11" rx="5.5" fill="#e9fbff" opacity="0.55"/>
      <path d="M281 145 304 96" stroke="#d9e8ff" stroke-width="8" stroke-linecap="round"/>
      <path d="M281 177 304 224" stroke="#d9e8ff" stroke-width="8" stroke-linecap="round"/>
      <circle cx="470" cy="93.5" r="7" fill="#ffd175"/>
      <circle cx="470" cy="226.5" r="7" fill="#ffd175"/>
    </g>
    <g opacity="0.82">
      <path d="M125 154h34" stroke="#8bdfff" stroke-width="4" stroke-linecap="round"/>
      <path d="M143 170h40" stroke="#8bdfff" stroke-width="4" stroke-linecap="round"/>
      <path d="M167 146h49" stroke="#8bdfff" stroke-width="4" stroke-linecap="round"/>
    </g>
  </g>
</svg>