<svg xmlns="http://www.w3.org/2000/svg" width="1920" height="900"><defs><linearGradient id="s" y2="1"><stop stop-color="#050914"/><stop offset=".6" stop-color="#0b1a32"/><stop offset="1" stop-color="#07080d"/></linearGradient></defs><rect width="1920" height="900" fill="url(#s)"/><circle cx="0" cy="30" r="1" fill="white" opacity=".8"/><circle cx="137" cy="109" r="2" fill="white" opacity=".8"/><circle cx="274" cy="188" r="3" fill="white" opacity=".8"/><circle cx="411" cy="267" r="1" fill="white" opacity=".8"/><circle cx="548" cy="346" r="2" fill="white" opacity=".8"/><circle cx="685" cy="425" r="3" fill="white" opacity=".8"/><circle cx="822" cy="74" r="1" fill="white" opacity=".8"/><circle cx="959" cy="153" r="2" fill="white" opacity=".8"/><circle cx="1096" cy="232" r="3" fill="white" opacity=".8"/><circle cx="1233" cy="311" r="1" fill="white" opacity=".8"/><circle cx="1370" cy="390" r="2" fill="white" opacity=".8"/><circle cx="1507" cy="39" r="3" fill="white" opacity=".8"/><circle cx="1644" cy="118" r="1" fill="white" opacity=".8"/><circle cx="1781" cy="197" r="2" fill="white" opacity=".8"/><circle cx="18" cy="276" r="3" fill="white" opacity=".8"/><circle cx="155" cy="355" r="1" fill="white" opacity=".8"/><circle cx="292" cy="434" r="2" fill="white" opacity=".8"/><circle cx="429" cy="83" r="3" fill="white" opacity=".8"/><circle cx="566" cy="162" r="1" fill="white" opacity=".8"/><circle cx="703" cy="241" r="2" fill="white" opacity=".8"/><circle cx="840" cy="320" r="3" fill="white" opacity=".8"/><circle cx="977" cy="399" r="1" fill="white" opacity=".8"/><circle cx="1114" cy="48" r="2" fill="white" opacity=".8"/><circle cx="1251" cy="127" r="3" fill="white" opacity=".8"/><circle cx="1388" cy="206" r="1" fill="white" opacity=".8"/><circle cx="1525" cy="285" r="2" fill="white" opacity=".8"/><circle cx="1662" cy="364" r="3" fill="white" opacity=".8"/><circle cx="1799" cy="443" r="1" fill="white" opacity=".8"/><circle cx="36" cy="92" r="2" fill="white" opacity=".8"/><circle cx="173" cy="171" r="3" fill="white" opacity=".8"/><circle cx="310" cy="250" r="1" fill="white" opacity=".8"/><circle cx="447" cy="329" r="2" fill="white" opacity=".8"/><circle cx="584" cy="408" r="3" fill="white" opacity=".8"/><circle cx="721" cy="57" r="1" fill="white" opacity=".8"/><circle cx="858" cy="136" r="2" fill="white" opacity=".8"/><circle cx="995" cy="215" r="3" fill="white" opacity=".8"/><circle cx="1132" cy="294" r="1" fill="white" opacity=".8"/><circle cx="1269" cy="373" r="2" fill="white" opacity=".8"/><circle cx="1406" cy="452" r="3" fill="white" opacity=".8"/><circle cx="1543" cy="101" r="1" fill="white" opacity=".8"/><circle cx="1680" cy="180" r="2" fill="white" opacity=".8"/><circle cx="1817" cy="259" r="3" fill="white" opacity=".8"/><circle cx="54" cy="338" r="1" fill="white" opacity=".8"/><circle cx="191" cy="417" r="2" fill="white" opacity=".8"/><circle cx="328" cy="66" r="3" fill="white" opacity=".8"/><circle cx="465" cy="145" r="1" fill="white" opacity=".8"/><circle cx="602" cy="224" r="2" fill="white" opacity=".8"/><circle cx="739" cy="303" r="3" fill="white" opacity=".8"/><circle cx="876" cy="382" r="1" fill="white" opacity=".8"/><circle cx="1013" cy="31" r="2" fill="white" opacity=".8"/><circle cx="1150" cy="110" r="3" fill="white" opacity=".8"/><circle cx="1287" cy="189" r="1" fill="white" opacity=".8"/><circle cx="1424" cy="268" r="2" fill="white" opacity=".8"/><circle cx="1561" cy="347" r="3" fill="white" opacity=".8"/><circle cx="1698" cy="426" r="1" fill="white" opacity=".8"/><circle cx="1835" cy="75" r="2" fill="white" opacity=".8"/><circle cx="72" cy="154" r="3" fill="white" opacity=".8"/><circle cx="209" cy="233" r="1" fill="white" opacity=".8"/><circle cx="346" cy="312" r="2" fill="white" opacity=".8"/><circle cx="483" cy="391" r="3" fill="white" opacity=".8"/><circle cx="620" cy="40" r="1" fill="white" opacity=".8"/><circle cx="757" cy="119" r="2" fill="white" opacity=".8"/><circle cx="894" cy="198" r="3" fill="white" opacity=".8"/><circle cx="1031" cy="277" r="1" fill="white" opacity=".8"/><circle cx="1168" cy="356" r="2" fill="white" opacity=".8"/><circle cx="1305" cy="435" r="3" fill="white" opacity=".8"/><circle cx="1442" cy="84" r="1" fill="white" opacity=".8"/><circle cx="1579" cy="163" r="2" fill="white" opacity=".8"/><circle cx="1716" cy="242" r="3" fill="white" opacity=".8"/><circle cx="1853" cy="321" r="1" fill="white" opacity=".8"/><circle cx="90" cy="400" r="2" fill="white" opacity=".8"/><circle cx="227" cy="49" r="3" fill="white" opacity=".8"/><circle cx="364" cy="128" r="1" fill="white" opacity=".8"/><circle cx="501" cy="207" r="2" fill="white" opacity=".8"/><circle cx="638" cy="286" r="3" fill="white" opacity=".8"/><circle cx="775" cy="365" r="1" fill="white" opacity=".8"/><circle cx="912" cy="444" r="2" fill="white" opacity=".8"/><circle cx="1049" cy="93" r="3" fill="white" opacity=".8"/><circle cx="1186" cy="172" r="1" fill="white" opacity=".8"/><circle cx="1323" cy="251" r="2" fill="white" opacity=".8"/><path d="M0 590 C300 430 500 600 760 480 C1030 360 1240 500 1510 370 C1720 270 1840 340 1920 300 V900 H0Z" fill="#0c0e14"/><path d="M0 710 C300 600 520 740 820 610 C1090 500 1300 650 1580 540 C1760 470 1870 480 1920 440 V900 H0Z" fill="#04050a"/><path d="M760 900 L900 545 H1030 L1170 900Z" fill="#151824"/><path d="M965 900V545" stroke="#ffd170" stroke-width="8" stroke-dasharray="55 45"/></svg>