<svg xmlns="http://www.w3.org/2000/svg" viewBox="0 0 200 200"><defs><radialGradient id="g" cx="35%" cy="28%"><stop stop-color="#8bd7ff"/><stop offset=".48" stop-color="#2473ad"/><stop offset="1" stop-color="#071525"/></radialGradient><filter id="gl"><feGaussianBlur stdDeviation="4"/></filter></defs><circle cx="100" cy="100" r="88" fill="#49a8ff" opacity=".28" filter="url(#gl)"/><circle cx="100" cy="100" r="82" fill="url(#g)"/><path d="M42 69c18-23 46-30 64-22 8 4 5 15-3 20-16 10-12 27-27 31-15 4-30-10-34-29Zm77 4c20-7 39 3 45 17-7 8-18 10-27 7-15-5-26-16-18-24Zm-31 45c19-7 45 3 51 21-17 15-46 19-67 7-10-6-3-22 16-28Z" fill="#5ea96e" opacity=".9"/><path d="M28 88c24-9 37-2 54 6m15-55c16 12 33 16 56 15m-90 92c28 6 48 2 69-8" fill="none" stroke="#fff" stroke-width="7" stroke-linecap="round" opacity=".62"/></svg>