<svg xmlns="http://www.w3.org/2000/svg" viewBox="0 0 512 512"><defs><radialGradient id="p" cx="35%" cy="26%" r="78%"><stop stop-color="#ffffff"/><stop offset=".18" stop-color="#c7f4ff"/><stop offset=".43" stop-color="#6cc1e6"/><stop offset=".72" stop-color="#315d93"/><stop offset="1" stop-color="#101c3b"/></radialGradient><filter id="tex"><feTurbulence type="fractalNoise" baseFrequency=".025 .07" numOctaves="3" seed="11" result="n"/><feColorMatrix in="n" values="1 0 0 0 .45 0 1 0 0 .55 0 0 1 0 .65 0 0 0 .42 0" result="c"/><feBlend in="SourceGraphic" in2="c" mode="screen"/></filter><filter id="g" x="-60%" y="-60%" width="220%" height="220%"><feGaussianBlur stdDeviation="12" result="b"/><feMerge><feMergeNode in="b"/><feMergeNode in="SourceGraphic"/></feMerge></filter></defs><circle cx="256" cy="256" r="205" fill="#8ae8ff" opacity=".18" filter="url(#g)"/><circle cx="256" cy="256" r="190" fill="url(#p)" filter="url(#tex)"/><path d="M97 272c60-33 112-22 161-44 48-22 93-17 159 18M117 337c62-28 109-19 156-37 45-17 82-15 126 4" fill="none" stroke="#f6ffff" stroke-opacity=".48" stroke-width="12" stroke-linecap="round"/><path d="M165 120l30 62 47-24 31 55 51-18 29 45" fill="none" stroke="#cfffff" stroke-opacity=".45" stroke-width="7" stroke-linecap="round"/><ellipse cx="201" cy="169" rx="58" ry="28" fill="#fff" opacity=".24" transform="rotate(-24 201 169)"/></svg>