<svg xmlns="http://www.w3.org/2000/svg" viewBox="0 0 260 220" fill="none">
  <defs>
    <radialGradient id="planetBase" cx="31%" cy="25%" r="78%">
      <stop offset="0" stop-color="#dce9ff"/>
      <stop offset=".18" stop-color="#9fb6f8"/>
      <stop offset=".43" stop-color="#6677d8"/>
      <stop offset=".72" stop-color="#39418f"/>
      <stop offset="1" stop-color="#111633"/>
    </radialGradient>
    <linearGradient id="bandA" x1="0" y1="0" x2="1" y2="0">
      <stop stop-color="#6ec8ff" stop-opacity=".05"/>
      <stop offset=".34" stop-color="#b5d8ff" stop-opacity=".55"/>
      <stop offset=".72" stop-color="#8587e8" stop-opacity=".42"/>
      <stop offset="1" stop-color="#4f4ab2" stop-opacity=".08"/>
    </linearGradient>
    <linearGradient id="bandB" x1="1" y1="0" x2="0" y2="0">
      <stop stop-color="#c197ff" stop-opacity=".08"/>
      <stop offset=".35" stop-color="#aa86e9" stop-opacity=".48"/>
      <stop offset=".7" stop-color="#6fc3ff" stop-opacity=".38"/>
      <stop offset="1" stop-color="#26306e" stop-opacity=".06"/>
    </linearGradient>
    <linearGradient id="ringBack" x1="0" y1="0" x2="1" y2="0">
      <stop stop-color="#8193d8" stop-opacity=".08"/>
      <stop offset=".28" stop-color="#c6d4ff" stop-opacity=".5"/>
      <stop offset=".55" stop-color="#a895eb" stop-opacity=".6"/>
      <stop offset=".82" stop-color="#83c8ef" stop-opacity=".42"/>
      <stop offset="1" stop-color="#6a76b5" stop-opacity=".05"/>
    </linearGradient>
    <linearGradient id="ringFront" x1="0" y1="0" x2="1" y2="0">
      <stop stop-color="#8ca0e0" stop-opacity=".06"/>
      <stop offset=".3" stop-color="#dde7ff" stop-opacity=".68"/>
      <stop offset=".58" stop-color="#b49ee9" stop-opacity=".78"/>
      <stop offset=".82" stop-color="#91d5f5" stop-opacity=".5"/>
      <stop offset="1" stop-color="#6f7fc0" stop-opacity=".04"/>
    </linearGradient>
    <radialGradient id="shadow" cx="22%" cy="18%" r="86%">
      <stop offset=".48" stop-color="#000" stop-opacity="0"/>
      <stop offset=".76" stop-color="#060915" stop-opacity=".3"/>
      <stop offset="1" stop-color="#01030a" stop-opacity=".72"/>
    </radialGradient>
    <clipPath id="planetClip"><circle cx="130" cy="108" r="72"/></clipPath>
    <filter id="blur4"><feGaussianBlur stdDeviation="4"/></filter>
    <filter id="blur8"><feGaussianBlur stdDeviation="8"/></filter>
    <filter id="glow"><feGaussianBlur stdDeviation="3" result="b"/><feMerge><feMergeNode in="b"/><feMergeNode in="SourceGraphic"/></feMerge></filter>
  </defs>

  <ellipse cx="130" cy="112" rx="116" ry="32" transform="rotate(-12 130 112)" fill="none" stroke="url(#ringBack)" stroke-width="18" opacity=".62"/>
  <ellipse cx="130" cy="112" rx="108" ry="26" transform="rotate(-12 130 112)" fill="none" stroke="#c9d7ff" stroke-opacity=".24" stroke-width="3"/>

  <circle cx="130" cy="108" r="81" fill="#6c78e8" opacity=".2" filter="url(#blur8)"/>
  <circle cx="130" cy="108" r="72" fill="url(#planetBase)"/>

  <g clip-path="url(#planetClip)">
    <path d="M52 65c41 18 95 1 158 11" stroke="url(#bandA)" stroke-width="13" stroke-linecap="round"/>
    <path d="M48 87c52-8 112 16 166 2" stroke="url(#bandB)" stroke-width="15" stroke-linecap="round"/>
    <path d="M47 112c48 15 111-12 169 3" stroke="url(#bandA)" stroke-width="12" stroke-linecap="round"/>
    <path d="M53 136c52-5 103 14 154 0" stroke="url(#bandB)" stroke-width="13" stroke-linecap="round"/>
    <path d="M66 157c44 8 84-8 127-1" stroke="url(#bandA)" stroke-width="9" stroke-linecap="round" opacity=".72"/>
    <ellipse cx="158" cy="121" rx="22" ry="10" transform="rotate(-11 158 121)" fill="#cbb8ff" opacity=".62" filter="url(#blur4)"/>
    <ellipse cx="158" cy="121" rx="16" ry="6.5" transform="rotate(-11 158 121)" fill="#e2d9ff" opacity=".72"/>
    <path d="M75 65c20-25 50-37 81-34" stroke="#fff" stroke-opacity=".2" stroke-width="8" stroke-linecap="round" filter="url(#blur4)"/>
  </g>

  <circle cx="130" cy="108" r="72" fill="url(#shadow)"/>
  <path d="M91 51c18-10 39-14 59-10" stroke="#fff" stroke-opacity=".22" stroke-width="6" stroke-linecap="round" filter="url(#blur4)"/>
  <circle cx="130" cy="108" r="72" fill="none" stroke="#b8d8ff" stroke-opacity=".28" stroke-width="2" filter="url(#glow)"/>

  <path d="M23 126c57 27 151 6 214-23" stroke="url(#ringFront)" stroke-width="15" stroke-linecap="round" opacity=".78"/>
  <path d="M27 130c58 20 143 5 207-22" stroke="#eef3ff" stroke-opacity=".25" stroke-width="3" stroke-linecap="round"/>
</svg>
