<svg xmlns="http://www.w3.org/2000/svg" viewBox="0 0 220 220" role="img" aria-label="">
  <defs>
    <radialGradient id="moon" cx="32%" cy="25%" r="72%">
      <stop offset="0" stop-color="#fffdf1"/>
      <stop offset=".18" stop-color="#dfe7ef"/>
      <stop offset=".5" stop-color="#919bab"/>
      <stop offset=".78" stop-color="#4c5463"/>
      <stop offset="1" stop-color="#171d29"/>
    </radialGradient>
    <radialGradient id="crater" cx="40%" cy="35%" r="65%">
      <stop stop-color="#2e3541" stop-opacity=".72"/>
      <stop offset=".55" stop-color="#697382" stop-opacity=".45"/>
      <stop offset="1" stop-color="#d8e0e7" stop-opacity=".18"/>
    </radialGradient>
    <filter id="glow"><feGaussianBlur stdDeviation="5" result="b"/><feMerge><feMergeNode in="b"/><feMergeNode in="SourceGraphic"/></feMerge></filter>
    <clipPath id="clip"><circle cx="110" cy="110" r="83"/></clipPath>
  </defs>
  <circle cx="110" cy="110" r="88" fill="#b9d7ff" opacity=".16" filter="url(#glow)"/>
  <circle cx="110" cy="110" r="83" fill="url(#moon)"/>
  <g clip-path="url(#clip)">
    <ellipse cx="73" cy="72" rx="21" ry="15" fill="url(#crater)" transform="rotate(-18 73 72)"/>
    <ellipse cx="137" cy="65" rx="13" ry="10" fill="url(#crater)"/>
    <ellipse cx="151" cy="116" rx="24" ry="18" fill="url(#crater)" transform="rotate(12 151 116)"/>
    <ellipse cx="89" cy="135" rx="16" ry="12" fill="url(#crater)"/>
    <ellipse cx="126" cy="157" rx="11" ry="8" fill="url(#crater)"/>
    <ellipse cx="58" cy="111" rx="10" ry="8" fill="url(#crater)"/>
    <path d="M35 129c34 15 61 13 88-1 21-11 39-10 67 5" fill="none" stroke="#f4fbff" stroke-opacity=".12" stroke-width="8"/>
  </g>
  <path d="M44 75c18-35 53-52 89-47" fill="none" stroke="#fff" stroke-opacity=".26" stroke-width="5" stroke-linecap="round"/>
</svg>