<svg xmlns="http://www.w3.org/2000/svg" viewBox="0 0 240 240" fill="none">
  <defs>
    <radialGradient id="g" cx="35%" cy="28%" r="68%">
      <stop offset="0" stop-color="#f9ffff"/>
      <stop offset="0.12" stop-color="#9ffbff"/>
      <stop offset="0.35" stop-color="#47d7f5"/>
      <stop offset="0.6" stop-color="#1672ac"/>
      <stop offset="0.82" stop-color="#18305a"/>
      <stop offset="1" stop-color="#090d1e"/>
    </radialGradient>
    <linearGradient id="a" x1="0" x2="1">
      <stop offset="0" stop-color="#9bf7ff" stop-opacity="0"/>
      <stop offset="0.35" stop-color="#9bf7ff" stop-opacity="0.9"/>
      <stop offset="0.7" stop-color="#b48dff" stop-opacity="0.8"/>
      <stop offset="1" stop-color="#ffb4e3" stop-opacity="0"/>
    </linearGradient>
    <filter id="b"><feGaussianBlur stdDeviation="2.6"/></filter>
  </defs>
  <circle cx="120" cy="120" r="108" fill="url(#g)"/>
  <path d="M24 108c27-15 55-18 93-10 28 6 51 18 101 47-46-7-75-7-109 1-28 6-52 18-87 41-9-17-13-29-15-47 4-13 8-24 17-32Z" fill="#7ae8ff" opacity="0.18"/>
  <path d="M25 85c37-23 68-31 112-29 27 1 46 8 81 23-39-1-64 0-91 8-24 6-45 18-82 42-8-16-12-28-20-44Z" fill="#f6a8ff" opacity="0.12"/>
  <path d="M31 118c42-8 75-6 110 7 29 11 49 25 74 53" stroke="url(#a)" stroke-width="18" stroke-linecap="round" filter="url(#b)"/>
  <path d="M50 67c26 17 46 21 78 22 26 1 48-4 81-17" stroke="#dfffff" stroke-opacity="0.3" stroke-width="5" stroke-linecap="round"/>
  <circle cx="90" cy="72" r="12" fill="#ffffff" opacity="0.18" filter="url(#b)"/>
</svg>