<svg xmlns="http://www.w3.org/2000/svg" viewBox="0 0 120 120">
  <defs>
    <radialGradient id="base" cx="33%" cy="27%" r="77%">
      <stop offset="0" stop-color="#ffe8ff"/>
      <stop offset=".16" stop-color="#d786f0"/>
      <stop offset=".45" stop-color="#7655bb"/>
      <stop offset=".76" stop-color="#2d295e"/>
      <stop offset="1" stop-color="#111329"/>
    </radialGradient>
    <linearGradient id="disk" x1="0" y1="0" x2="1" y2="0">
      <stop offset="0" stop-color="#ff6f61" stop-opacity="0"/>
      <stop offset=".25" stop-color="#ff9e5d" stop-opacity=".75"/>
      <stop offset=".55" stop-color="#f6d886" stop-opacity=".96"/>
      <stop offset=".78" stop-color="#df74d7" stop-opacity=".7"/>
      <stop offset="1" stop-color="#8e62ff" stop-opacity="0"/>
    </linearGradient>
    <filter id="glow" x="-60%" y="-60%" width="220%" height="220%">
      <feDropShadow dx="0" dy="0" stdDeviation="4" flood-color="#c776ff" flood-opacity=".62"/>
    </filter>
  </defs>
  <ellipse cx="60" cy="62" rx="54" ry="17" fill="none" stroke="url(#disk)" stroke-width="7" transform="rotate(-12 60 62)" opacity=".78" filter="url(#glow)"/>
  <ellipse cx="60" cy="62" rx="45" ry="10" fill="none" stroke="#ffd38a" stroke-width="2" transform="rotate(-12 60 62)" opacity=".55"/>
  <circle cx="60" cy="60" r="34" fill="url(#base)" filter="url(#glow)"/>
  <path d="M31 55C48 46 69 61 88 47L91 59C71 70 50 56 30 67Z" fill="#b65dbe" opacity=".45"/>
  <ellipse cx="49" cy="47" rx="10" ry="5" fill="#fff" opacity=".2" transform="rotate(-22 49 47)"/>
  <g fill="#ffd58d" opacity=".75"><circle cx="18" cy="43" r="1.8"/><circle cx="102" cy="49" r="1.6"/><circle cx="25" cy="82" r="1.3"/><circle cx="96" cy="82" r="1.4"/></g>
</svg>
