<svg xmlns="http://www.w3.org/2000/svg" viewBox="0 0 120 120">
  <defs>
    <radialGradient id="base" cx="33%" cy="28%" r="77%">
      <stop offset="0" stop-color="#fff8d6"/>
      <stop offset=".2" stop-color="#d9c094"/>
      <stop offset=".52" stop-color="#9b6f61"/>
      <stop offset=".8" stop-color="#4a3448"/>
      <stop offset="1" stop-color="#151426"/>
    </radialGradient>
    <clipPath id="clip"><circle cx="60" cy="60" r="45"/></clipPath>
    <filter id="glow" x="-50%" y="-50%" width="200%" height="200%">
      <feDropShadow dx="0" dy="0" stdDeviation="5" flood-color="#ffd89f" flood-opacity=".48"/>
    </filter>
  </defs>
  <circle cx="60" cy="60" r="47" fill="#734f54" opacity=".22" filter="url(#glow)"/>
  <circle cx="60" cy="60" r="45" fill="url(#base)"/>
  <g clip-path="url(#clip)">
    <path d="M8 35C33 42 68 27 112 39V49C74 41 38 55 8 46Z" fill="#f4deb3" opacity=".65"/>
    <path d="M5 53C38 63 72 44 115 58V68C76 57 40 76 5 65Z" fill="#855769" opacity=".72"/>
    <path d="M8 74C38 83 77 66 111 79V89C79 79 39 96 8 86Z" fill="#c58c72" opacity=".55"/>
    <ellipse cx="77" cy="69" rx="11" ry="6" fill="#b94952" opacity=".86" transform="rotate(-8 77 69)"/>
  </g>
  <ellipse cx="42" cy="37" rx="14" ry="7" fill="#fff" opacity=".18" transform="rotate(-20 42 37)"/>
  <circle cx="60" cy="60" r="45" fill="none" stroke="#fff0cf" stroke-opacity=".2"/>
</svg>
